<svg width="181" height="38" viewBox="0 0 181 38" fill="none" xmlns="http://www.w3.org/2000/svg">
<path d="M15.1945 24.5945C16.6952 24.8372 17.9641 25.4 19.0014 26.2828C20.0607 27.1434 20.5903 28.3903 20.5903 30.0235C20.5903 31.5021 20.149 32.8041 19.2662 33.9297C18.3834 35.0552 17.1807 35.9269 15.6579 36.5448C14.1352 37.1628 12.4579 37.4717 10.6262 37.4717C9.58897 37.4717 8.59586 37.3724 7.6469 37.1738C6.72 36.9752 5.91448 36.7214 5.23034 36.4124C4.96552 36.8097 4.41379 37.0083 3.57517 37.0083C3.22207 37.0083 2.83586 36.9862 2.41655 36.9421C2.01931 36.8979 1.71034 36.8317 1.48966 36.7435C1.77655 36.3241 1.97517 35.949 2.08552 35.6179C2.19586 35.2869 2.33931 34.7683 2.51586 34.0621C3.17793 31.3034 3.96138 27.7393 4.86621 23.3697C5.7931 18.9779 6.25655 16.44 6.25655 15.7559C6.25655 15.5352 6.20138 15.3917 6.09103 15.3255C5.98069 15.2593 5.78207 15.2262 5.49517 15.2262C4.92138 15.2262 4.1269 15.3034 3.11172 15.4579C1.96414 15.5903 1.2469 15.6566 0.96 15.6566C0.628965 15.6566 0.386207 15.6124 0.231724 15.5241C0.0772414 15.4359 0 15.2703 0 15.0276C0 14.829 0.0551724 14.531 0.165517 14.1338C0.275862 13.7366 0.386207 13.4497 0.496552 13.2731C0.54069 13.2952 0.64 13.3614 0.794483 13.4717C0.971034 13.56 1.22483 13.6262 1.55586 13.6703C1.90897 13.7145 2.37241 13.7366 2.94621 13.7366H10.5931C13.6828 13.7366 16.1545 14.2221 18.0083 15.1931C19.8621 16.1641 20.789 17.5766 20.789 19.4303C20.789 21.9903 18.9241 23.7117 15.1945 24.5945ZM10.4938 35.7172C12.7007 35.7172 14.3669 35.1986 15.4924 34.1614C16.6179 33.1021 17.1807 31.6676 17.1807 29.8579C17.1807 28.4676 16.8276 27.4414 16.1214 26.7793C15.4152 26.1172 14.2897 25.7862 12.7448 25.7862C11.7297 25.7862 10.869 25.8303 10.1628 25.9186C9.98621 25.7421 9.83172 25.5103 9.69931 25.2234C9.5669 24.9366 9.50069 24.6386 9.50069 24.3297C9.50069 24.0428 9.5669 23.8662 9.69931 23.8C9.87586 23.8221 10.2179 23.8552 10.7255 23.8993C11.2552 23.9214 11.6745 23.9324 11.9834 23.9324C12.9766 23.9324 13.8814 23.7228 14.6979 23.3034C15.5145 22.8841 16.1655 22.2993 16.651 21.549C17.1366 20.7986 17.3793 19.949 17.3793 19C17.3793 17.72 16.9159 16.771 15.989 16.1531C15.0621 15.5131 13.7159 15.1931 11.9503 15.1931C11.1779 15.1931 10.5931 15.2814 10.1959 15.4579C9.82069 15.6124 9.52276 15.9214 9.30207 16.3848C9.10345 16.8483 8.90483 17.5766 8.70621 18.5697C7.18345 26.2055 6.19034 31.4579 5.7269 34.3269C7.0069 35.2538 8.59586 35.7172 10.4938 35.7172Z" fill="#3279F3"/>
<path d="M39.1769 28.6331C39.6845 28.6331 39.9383 28.9972 39.9383 29.7255C39.9383 30.1007 39.8721 30.4869 39.7397 30.8841C39.4307 31.8552 38.7907 32.8262 37.8197 33.7972C36.8707 34.7683 35.7231 35.5738 34.3769 36.2138C33.0528 36.8317 31.6845 37.1407 30.2721 37.1407C28.7052 37.1407 27.5024 36.7435 26.6638 35.949C25.8472 35.1324 25.439 34.0179 25.439 32.6055C25.439 31.3917 25.7148 29.229 26.2666 26.1172C26.8403 23.0055 27.4914 19.7835 28.2197 16.451C28.9479 13.0966 29.5217 10.669 29.941 9.16828C31.0886 5.04138 32.6665 2.97793 34.6748 2.97793C35.6679 2.97793 36.4072 3.43035 36.8928 4.33517C37.3783 5.24 37.621 6.38759 37.621 7.77793C37.621 10.5586 36.7493 13.891 35.0059 17.7752C33.2624 21.6372 31.1769 25.2897 28.7493 28.7324C28.5728 30.1448 28.4845 31.2593 28.4845 32.0759C28.4845 33.3117 28.6721 34.1614 29.0472 34.6248C29.4445 35.0883 30.0514 35.32 30.8679 35.32C31.9714 35.32 33.0748 35 34.1783 34.36C35.3038 33.72 36.3079 32.8924 37.1907 31.8772C38.0734 30.84 38.7355 29.7586 39.1769 28.6331ZM32.9203 9.59862C32.2803 11.96 31.6183 14.5862 30.9341 17.4772C30.2721 20.3462 29.7203 22.9834 29.279 25.389C30.9341 22.4979 32.3686 19.3972 33.5824 16.0869C34.7962 12.7766 35.4031 10.0179 35.4031 7.81104C35.4031 7.1269 35.3369 6.56414 35.2045 6.12276C35.0721 5.68138 34.8845 5.46069 34.6417 5.46069C34.421 5.46069 34.1893 5.73655 33.9466 6.28828C33.7259 6.81793 33.3838 7.92138 32.9203 9.59862Z" fill="#3279F3"/>
<path d="M56.4028 24.8924C56.6897 25.0028 56.8332 25.2345 56.8332 25.5876C56.8332 26.2055 56.5353 26.8014 55.9394 27.3752C55.3435 27.9269 54.5601 28.3793 53.5891 28.7324C52.6401 29.0855 51.658 29.2621 50.6428 29.2621C49.8484 29.2621 49.0318 29.1407 48.1932 28.8979C48.1711 29.0524 48.138 29.229 48.0939 29.4276C48.0497 29.6041 48.0056 29.8248 47.9615 30.0897C47.8953 30.4428 47.7628 31.0938 47.5642 32.0428C47.3877 32.9917 47.2773 33.6648 47.2332 34.0621C47.0566 34.4372 46.6815 34.8786 46.1077 35.3862C45.5339 35.8717 44.8608 36.291 44.0884 36.6441C43.3159 36.9972 42.5546 37.1738 41.8042 37.1738C41.0759 37.1738 40.3366 36.9972 39.5863 36.6441C38.8359 36.291 38.207 35.8166 37.6994 35.2207C37.2139 34.6028 36.9711 33.9407 36.9711 33.2345C37.2801 32.0428 37.5118 31.0607 37.6663 30.2883C37.8208 29.5159 38.0084 28.4124 38.229 26.9779C38.3173 26.4483 38.6704 25.8855 39.2884 25.2897C39.9284 24.6717 40.7008 24.1641 41.6056 23.7669C42.5325 23.3697 43.4373 23.171 44.3201 23.171H44.7504C44.8166 22.7738 44.9711 22.4869 45.2139 22.3103C45.4566 22.1117 45.8208 22.0124 46.3063 22.0124C47.0346 22.0124 47.498 22.1559 47.6966 22.4428C47.4759 23.3697 47.3656 24.0317 47.3656 24.429C47.3656 25.4221 47.7187 26.2055 48.4249 26.7793C49.1532 27.3531 50.1573 27.64 51.4373 27.64C52.5187 27.64 53.5118 27.4193 54.4166 26.9779C55.3215 26.5366 55.9835 25.8414 56.4028 24.8924ZM42.1353 35.3862C42.5766 35.3862 43.029 35.2317 43.4925 34.9228C43.9559 34.5917 44.2649 34.2276 44.4194 33.8303C44.6401 32.6386 44.8497 31.6235 45.0484 30.7848C45.1146 30.4759 45.2139 29.9793 45.3463 29.2952C45.5008 28.611 45.6222 27.9931 45.7104 27.4414C45.1587 26.8897 44.8166 26.2276 44.6842 25.4552C44.6842 25.3669 44.6622 25.2897 44.618 25.2234C44.5959 25.1572 44.5518 25.1131 44.4856 25.091C44.3532 25.0469 44.1656 25.0248 43.9228 25.0248C43.1725 25.0248 42.5546 25.2455 42.069 25.6869C41.5835 26.1062 41.2746 26.6579 41.1422 27.3421C40.6787 29.5048 40.2594 31.4359 39.8842 33.1352C39.9063 33.8193 40.1601 34.371 40.6456 34.7903C41.1311 35.1876 41.6277 35.3862 42.1353 35.3862Z" fill="#3279F3"/>
<path d="M58.4222 37.0745C57.4511 37.0745 56.5353 36.8428 55.6746 36.3793C54.8359 35.8938 54.1628 35.3421 53.6553 34.7241C53.1477 34.0841 52.8939 33.5766 52.8939 33.2014C53.3353 31.5462 53.6553 30.2441 53.8539 29.2952C54.0746 28.3241 54.2953 27.2538 54.5159 26.0841C54.5822 25.6648 54.9242 25.2014 55.5422 24.6938C56.1601 24.1862 56.8884 23.7559 57.727 23.4028C58.5877 23.0276 59.3711 22.84 60.0773 22.84C60.938 22.84 61.7766 23.0607 62.5932 23.5021C63.4097 23.9214 63.818 24.5283 63.818 25.3228C63.818 26.2717 63.178 26.9779 61.898 27.4414L61.7656 27.4083C61.7215 26.6138 61.4897 25.8966 61.0704 25.2566C60.6732 24.5945 60.2208 24.2634 59.7132 24.2634C59.2277 24.2634 58.709 24.5283 58.1573 25.0579C57.6277 25.5876 57.3187 26.0952 57.2304 26.5807C56.8773 28.4786 56.458 30.5862 55.9725 32.9035C56.0828 33.6317 56.3587 34.2055 56.8001 34.6248C57.2635 35.0441 58.069 35.2538 59.2166 35.2538C60.6511 35.2538 62.1408 34.8455 63.6856 34.029C65.2525 33.1903 66.4994 31.5903 67.4263 29.229C67.8677 29.229 68.0884 29.5379 68.0884 30.1559C68.0884 31.2152 67.5366 32.2855 66.4332 33.3669C65.3518 34.4262 64.0387 35.309 62.4939 36.0152C60.9491 36.7214 59.5918 37.0745 58.4222 37.0745Z" fill="#3279F3"/>
<path d="M84.2297 0.230347C85.2448 0.230347 86.2269 0.406899 87.1759 0.760003C88.1248 1.1131 88.9083 1.67586 89.5262 2.44828C90.1662 3.19862 90.4862 4.15862 90.4862 5.32828C90.4862 5.59311 90.4641 5.88 90.42 6.18897C90.3759 6.47586 90.3207 6.69655 90.2545 6.85104C88.7317 4.64414 86.4807 3.54069 83.5014 3.54069C81.9786 3.54069 80.4669 4.18069 78.9662 5.46069C77.4655 6.74069 76.0531 8.61655 74.729 11.0883C73.4048 13.5379 72.2572 16.4731 71.2862 19.8938C70.5579 22.4979 69.9731 24.6607 69.5317 26.3821C69.1124 28.1035 68.6379 30.1779 68.1083 32.6055C69.6752 30.4207 71.3966 28.2028 73.2724 25.9517C75.1703 23.6786 76.2848 22.5421 76.6159 22.5421C76.9248 22.5421 77.4545 22.6855 78.2048 22.9724C78.9772 23.2372 79.4517 23.5352 79.6283 23.8662C77.6421 25.3669 75.5345 27.1986 73.3055 29.3614C73.3938 31.2814 73.7248 32.749 74.2986 33.7641C74.8724 34.7572 75.6559 35.2538 76.649 35.2538C77.4434 35.2538 78.3372 34.9338 79.3303 34.2938C80.3455 33.6538 81.2834 32.7931 82.1441 31.7117C83.0048 30.6083 83.6338 29.4166 84.031 28.1366C84.3179 28.1366 84.5276 28.2359 84.66 28.4345C84.8145 28.611 84.8917 28.8428 84.8917 29.1297C84.8917 29.9462 84.3952 31.0166 83.4021 32.3407C82.409 33.6648 81.2062 34.8235 79.7938 35.8166C78.3814 36.8097 77.0462 37.3062 75.7883 37.3062C74.5083 37.3062 73.4821 36.7876 72.7097 35.7503C71.9593 34.691 71.4848 33.2455 71.2862 31.4138C69.6972 33.069 68.1303 34.8345 66.5855 36.7103C66.5414 36.7766 66.4531 36.8979 66.3207 37.0745C66.1883 37.2731 66.0779 37.3724 65.9897 37.3724C65.8131 37.3724 65.5703 37.229 65.2614 36.9421C64.9745 36.6772 64.82 36.4455 64.7979 36.2469C64.7538 35.6069 65.2172 33.069 66.1883 28.6331C67.1814 24.1972 68.0641 20.6 68.8365 17.8414C69.8959 14.0897 71.22 10.9007 72.809 8.27448C74.3979 5.62621 76.1634 3.62897 78.1055 2.28276C80.0696 0.914485 82.111 0.230347 84.2297 0.230347Z" fill="#3279F3"/>
<path d="M119.886 30.9503C120.46 31.2814 120.747 31.8772 120.747 32.7379C120.747 33.6869 120.427 34.5476 119.787 35.32C119.169 36.0924 118.331 36.6883 117.271 37.1076C116.234 37.549 115.109 37.7697 113.895 37.7697C111.798 37.7697 110.32 37.1076 109.459 35.7835C108.598 34.4593 108.168 32.5172 108.168 29.9572C108.168 28.0593 108.344 26.371 108.697 24.8924C109.051 23.3917 109.613 21.56 110.386 19.3972C108.135 22.7738 105.464 27.3421 102.375 33.1021C102.132 33.5876 101.944 33.9738 101.812 34.2607C101.702 34.5476 101.646 34.8455 101.646 35.1545L101.68 35.651C101.68 35.8717 101.58 36.0041 101.382 36.0483C100.653 36.2469 99.903 36.5448 99.1306 36.9421C98.6892 37.1407 98.4354 37.24 98.3692 37.24C98.2809 37.24 98.1927 37.1848 98.1044 37.0745C98.0382 36.9862 97.9941 36.8869 97.972 36.7766C98.281 36.5779 98.4354 35.9931 98.4354 35.0221C98.4354 34.0731 98.303 32.5945 98.0382 30.5862C97.7954 28.5779 97.4644 26.0841 97.0451 23.1048C95.8313 26.04 94.6065 28.5669 93.3706 30.6855C92.1568 32.7821 90.7665 34.4814 89.1996 35.7835C87.6547 37.0634 85.9334 37.7034 84.0354 37.7034C82.5347 37.7034 81.2437 37.2952 80.1623 36.4786C79.0589 35.6621 78.5072 34.4593 78.5072 32.8703C78.5072 32.0317 78.6616 31.1931 78.9706 30.3545C79.2796 29.4938 79.6989 28.7876 80.2285 28.2359C80.7361 27.6841 81.3099 27.4083 81.9499 27.4083C82.1485 27.4083 82.3582 27.4524 82.5789 27.5407C82.7996 27.6069 83.0313 27.6841 83.274 27.7724C82.634 28.4124 82.1154 29.2069 81.7182 30.1559C81.3209 31.1048 81.1223 32.0317 81.1223 32.9366C81.1223 33.9738 81.3872 34.7572 81.9168 35.2869C82.4685 35.7945 83.2409 36.0483 84.234 36.0483C85.8892 36.0483 87.412 35.3641 88.8023 33.9959C90.1927 32.6276 91.4837 30.7517 92.6754 28.3683C93.8892 25.9628 95.1361 22.9614 96.4161 19.3641C96.1954 18.1945 96.0299 17.3669 95.9196 16.8814C95.5665 15.2041 95.3899 14.2552 95.3899 14.0345C95.3899 13.6372 95.5665 13.3503 95.9196 13.1738C96.2947 12.9972 96.7692 12.909 97.343 12.909C98.0934 12.909 98.623 13.0745 98.932 13.4055C99.241 13.7366 99.3954 14.2662 99.3954 14.9945C99.3954 16.1641 99.263 17.4772 98.9982 18.9338C99.1085 20.2359 99.4727 22.5421 100.091 25.8524C100.157 26.2055 100.311 27.0552 100.554 28.4014C100.819 29.7255 101.006 30.8841 101.117 31.8772C103.103 28.1255 104.769 25.1021 106.115 22.8069C107.462 20.4897 108.808 18.2828 110.154 16.1862C110.949 14.9503 111.544 14.0566 111.942 13.5048C112.339 12.9531 112.681 12.5779 112.968 12.3793C113.255 12.1586 113.553 12.0483 113.862 12.0483C114.59 12.0483 115.285 12.5338 115.947 13.5048C115.506 13.6814 115.064 14.0455 114.623 14.5972C114.182 15.1269 113.784 15.8331 113.431 16.7159C112.857 18.1503 112.361 20.1035 111.942 22.5752C111.544 25.0469 111.346 27.2207 111.346 29.0966C111.346 33.4662 112.626 35.651 115.186 35.651C116.355 35.651 117.326 35.2207 118.099 34.36C118.893 33.4993 119.489 32.3628 119.886 30.9503Z" fill="#3279F3"/>
<path d="M136.842 29.3283C137.217 29.5048 137.405 29.7586 137.405 30.0897C137.405 31.0828 136.82 32.131 135.65 33.2345C134.503 34.3159 133.068 35.2317 131.347 35.9821C129.647 36.7103 128.069 37.0745 126.613 37.0745C125.421 37.0745 124.406 36.8317 123.567 36.3462C122.729 35.8607 122.089 35.32 121.647 34.7241C121.228 34.1062 121.018 33.6538 121.018 33.3669C121.173 32.7931 121.316 32.109 121.449 31.3145C121.603 30.52 121.714 29.9683 121.78 29.6593C121.846 29.2621 121.923 28.7986 122.012 28.269C122.122 27.7172 122.254 27.0883 122.409 26.3821C122.497 25.9407 122.883 25.4552 123.567 24.9255C124.252 24.3738 125.024 23.9214 125.885 23.5683C126.767 23.1931 127.496 23.0055 128.069 23.0055C128.555 23.0055 129.129 23.1379 129.791 23.4028C130.475 23.6676 131.06 24.0428 131.545 24.5283C132.031 24.9917 132.274 25.5435 132.274 26.1835C132.274 27 131.865 27.7945 131.049 28.5669C130.254 29.3393 129.239 29.9793 128.003 30.4869C126.767 30.9724 125.554 31.2372 124.362 31.2814L124.097 32.6717C124.163 33.3559 124.483 33.9517 125.057 34.4593C125.631 34.9448 126.492 35.1876 127.639 35.1876C128.743 35.1876 129.89 34.9338 131.082 34.4262C132.296 33.9186 133.41 33.2234 134.425 32.3407C135.463 31.4359 136.268 30.4317 136.842 29.3283ZM127.772 24.3959C127.22 24.3959 126.679 24.6607 126.149 25.1903C125.642 25.72 125.322 26.2497 125.189 26.7793L124.627 29.7917C125.951 29.7034 127.076 29.3172 128.003 28.6331C128.93 27.949 129.394 27.1434 129.394 26.2166C129.394 25.6648 129.228 25.2234 128.897 24.8924C128.588 24.5614 128.213 24.3959 127.772 24.3959Z" fill="#3279F3"/>
<path d="M159.682 1.88552C160.918 1.88552 161.933 2.19448 162.728 2.81241C163.544 3.40828 164.019 4.2469 164.151 5.32828V5.62621C162.849 5.00828 161.315 4.69931 159.55 4.69931C157.828 4.69931 156.361 4.93104 155.147 5.39448C153.955 5.85793 152.852 6.81793 151.837 8.27448C150.844 9.70897 149.972 11.8497 149.222 14.6966C148.405 17.7641 147.599 21.251 146.805 25.1572C146.011 29.0634 145.613 31.6234 145.613 32.8372C145.613 33.6538 145.735 34.2497 145.977 34.6248C146.242 35 146.617 35.1876 147.103 35.1876C148.096 35.1876 149.188 34.691 150.38 33.6979C151.572 32.6828 152.609 31.3917 153.492 29.8248C153.779 29.9131 153.922 30.1338 153.922 30.4869C153.922 31.2152 153.547 32.109 152.797 33.1683C152.068 34.2276 151.086 35.1434 149.851 35.9159C148.637 36.6883 147.346 37.0745 145.977 37.0745C145.139 37.0745 144.433 36.8097 143.859 36.28C143.285 35.7283 142.899 34.9779 142.7 34.029C142.06 34.8897 141.288 35.629 140.383 36.2469C139.5 36.8648 138.651 37.1738 137.834 37.1738C137.216 37.1738 136.631 36.9862 136.079 36.611C135.55 36.2359 135.119 35.7724 134.788 35.2207C134.479 34.6469 134.325 34.0952 134.325 33.5655C134.479 33.0359 134.623 32.429 134.755 31.7448C134.888 31.0386 135.009 30.3434 135.119 29.6593C135.186 29.3283 135.252 28.9421 135.318 28.5007C135.406 28.0372 135.506 27.5297 135.616 26.9779C135.704 26.5145 136.035 25.9628 136.609 25.3228C137.205 24.6828 137.933 24.131 138.794 23.6676C139.677 23.2041 140.582 22.9724 141.508 22.9724C142.303 22.9724 143.186 23.2703 144.157 23.8662C144.51 22.0124 144.885 20.2248 145.282 18.5034C146.606 12.8097 148.515 8.61655 151.009 5.92414C153.525 3.23172 156.416 1.88552 159.682 1.88552ZM143.859 25.4552C143.506 25.2345 143.108 25.0579 142.667 24.9255C142.226 24.7931 141.828 24.7269 141.475 24.7269C140.791 24.7269 140.162 24.9807 139.588 25.4883C139.037 25.9959 138.662 26.6359 138.463 27.4083C138.331 27.96 138.11 29.0193 137.801 30.5862C137.602 31.6897 137.426 32.5393 137.271 33.1352C137.271 33.6869 137.404 34.1724 137.668 34.5917C137.955 34.989 138.286 35.1876 138.662 35.1876C139.544 35.1876 140.405 34.6469 141.244 33.5655C142.104 32.4621 142.733 30.9834 143.131 29.1297L143.859 25.4552Z" fill="#3279F3"/>
<path d="M154.763 37.1407C153.748 37.1407 152.942 36.8759 152.346 36.3462C151.75 35.7945 151.452 34.9228 151.452 33.731C151.452 33.4441 151.463 33.2234 151.486 33.069L152.545 28.0372C152.986 25.7862 153.273 24.4069 153.406 23.8993C153.516 23.6345 153.726 23.4248 154.034 23.2703C154.343 23.0938 154.697 23.0055 155.094 23.0055C155.447 23.0055 155.734 23.0828 155.954 23.2372C156.197 23.3697 156.33 23.5241 156.352 23.7007C155.888 25.7531 155.259 28.7876 154.465 32.8041C154.443 32.9807 154.432 33.2124 154.432 33.4993C154.432 34.1172 154.564 34.5586 154.829 34.8234C155.094 35.0883 155.48 35.2207 155.988 35.2207C156.87 35.2207 157.819 34.9117 158.834 34.2938C159.85 33.6538 160.788 32.8703 161.648 31.9435C162.531 30.9945 163.215 30.0566 163.701 29.1297C164.032 29.2621 164.197 29.4828 164.197 29.7917C164.197 30.0124 164.153 30.2441 164.065 30.4869C163.977 30.7076 163.921 30.851 163.899 30.9172C163.48 31.9103 162.752 32.8924 161.714 33.8634C160.699 34.8345 159.552 35.629 158.272 36.2469C157.014 36.8428 155.844 37.1407 154.763 37.1407ZM155.491 19.5628C154.961 19.5628 154.553 19.4083 154.266 19.0993C154.001 18.7903 153.869 18.371 153.869 17.8414C153.869 17.1572 154.068 16.5834 154.465 16.12C154.862 15.6566 155.403 15.4248 156.087 15.4248C156.617 15.4248 157.025 15.5683 157.312 15.8552C157.599 16.1421 157.742 16.5503 157.742 17.08C157.742 17.7641 157.532 18.349 157.113 18.8345C156.694 19.32 156.153 19.5628 155.491 19.5628Z" fill="#3279F3"/>
<path d="M179.74 28.931C180.137 28.931 180.336 29.2621 180.336 29.9241C180.336 30.9834 179.906 32.0979 179.045 33.2676C178.206 34.4152 177.158 35.3752 175.9 36.1476C174.642 36.92 173.484 37.3062 172.424 37.3062C171.586 37.3062 170.846 37.0634 170.206 36.5779C169.588 36.0924 169.147 35.4635 168.882 34.691C168.286 35.4414 167.569 36.0483 166.73 36.5117C165.892 36.9531 165.141 37.1738 164.479 37.1738C163.906 37.1738 163.332 37.0083 162.758 36.6772C162.184 36.3241 161.699 35.8828 161.301 35.3531C160.904 34.8234 160.695 34.2938 160.673 33.7641C161.18 31.5131 161.632 29.3283 162.03 27.2097C162.118 26.7683 162.493 26.2166 163.155 25.5545C163.817 24.8703 164.612 24.2855 165.539 23.8C166.466 23.3145 167.348 23.0717 168.187 23.0717C168.959 23.0717 169.743 23.3035 170.537 23.7669C170.692 23.3917 170.813 23.16 170.901 23.0717C170.99 22.9614 171.122 22.8952 171.299 22.8731L174.179 22.7076L174.278 22.7738C174.013 22.9945 173.815 23.2372 173.682 23.5021C173.55 23.7669 173.428 24.0759 173.318 24.429C172.921 25.7752 172.512 27.4083 172.093 29.3283C171.674 31.2262 171.464 32.5393 171.464 33.2676C171.464 33.8855 171.608 34.4483 171.895 34.9559C172.204 35.4635 172.678 35.7172 173.318 35.7172C173.98 35.7172 174.741 35.4303 175.602 34.8566C176.485 34.2828 177.301 33.4772 178.052 32.44C178.824 31.4028 179.387 30.2331 179.74 28.931ZM165.539 35.1876C165.848 35.1876 166.223 35.0331 166.664 34.7241C167.106 34.4152 167.514 33.9959 167.889 33.4662C168.286 32.9366 168.562 32.3517 168.717 31.7117L169.246 29.229C169.644 27.1986 169.919 25.8634 170.074 25.2234C169.5 24.9586 168.893 24.8262 168.253 24.8262C167.216 24.8262 166.432 25.1572 165.903 25.8193C165.395 26.4593 165.053 27.1876 164.877 28.0041L163.85 33.0028C163.895 33.5545 164.093 34.0621 164.446 34.5255C164.799 34.9669 165.164 35.1876 165.539 35.1876Z" fill="#3279F3"/>
</svg>
