<svg width="24" height="24" viewBox="0 0 24 24" fill="none" xmlns="http://www.w3.org/2000/svg">
<path d="M5.84292 4.56801C7.47586 2.93508 9.6906 2.0177 11.9999 2.0177C14.3092 2.0177 16.524 2.93508 18.1569 4.56801C19.7899 6.20095 20.7072 8.41569 20.7072 10.725C20.7072 13.0343 19.7899 15.2491 18.1569 16.882L16.9699 18.056C16.0953 18.914 14.9599 20.018 13.5639 21.368C13.1443 21.7737 12.5836 22.0005 11.9999 22.0005C11.4163 22.0005 10.8555 21.7737 10.4359 21.368L6.94492 17.972C6.50559 17.5413 6.13826 17.178 5.84292 16.882C5.03434 16.0735 4.39293 15.1136 3.95532 14.0572C3.51771 13.0008 3.29248 11.8685 3.29248 10.725C3.29248 9.58154 3.51771 8.44927 3.95532 7.39284C4.39293 6.33642 5.03434 5.37654 5.84292 4.56801ZM17.0959 5.62801C16.4266 4.95873 15.632 4.42784 14.7574 4.06565C13.8829 3.70347 12.9456 3.51707 11.9991 3.51712C11.0525 3.51717 10.1152 3.70365 9.24076 4.06592C8.36627 4.4282 7.5717 4.95917 6.90242 5.62851C6.23314 6.29786 5.70225 7.09248 5.34006 7.967C4.97788 8.84152 4.79148 9.77881 4.79153 10.7254C4.79158 11.6719 4.97806 12.6092 5.34033 13.4837C5.70261 14.3582 6.23358 15.1527 6.90292 15.822L8.39092 17.29C9.20959 18.0907 10.2389 19.0907 11.4789 20.29C11.6187 20.425 11.8055 20.5005 11.9999 20.5005C12.1943 20.5005 12.3811 20.425 12.5209 20.29L15.9159 16.99C16.3859 16.5293 16.7793 16.14 17.0959 15.822C18.4474 14.4704 19.2067 12.6374 19.2067 10.726C19.2067 8.81466 18.4474 6.98158 17.0959 5.63001M11.9999 7.99901C12.3942 7.99901 12.7845 8.07666 13.1487 8.22753C13.513 8.37839 13.8439 8.59952 14.1227 8.87828C14.4014 9.15704 14.6225 9.48798 14.7734 9.8522C14.9243 10.2164 15.0019 10.6068 15.0019 11.001C15.0019 11.3952 14.9243 11.7856 14.7734 12.1498C14.6225 12.514 14.4014 12.845 14.1227 13.1237C13.8439 13.4025 13.513 13.6236 13.1487 13.7745C12.7845 13.9254 12.3942 14.003 11.9999 14.003C11.2134 13.9887 10.4639 13.6661 9.91269 13.1048C9.36152 12.5435 9.05271 11.7882 9.05271 11.0015C9.05271 10.2148 9.36152 9.45957 9.91269 8.89824C10.4639 8.33691 11.2134 8.01437 11.9999 8.00001M11.9999 9.50001C11.6016 9.50001 11.2195 9.65826 10.9378 9.93994C10.6562 10.2216 10.4979 10.6037 10.4979 11.002C10.4979 11.4004 10.6562 11.7824 10.9378 12.0641C11.2195 12.3458 11.6016 12.504 11.9999 12.504C12.3914 12.4939 12.7635 12.3313 13.0369 12.0508C13.3102 11.7703 13.4632 11.3942 13.4632 11.0025C13.4632 10.6109 13.3102 10.2347 13.0369 9.95423C12.7635 9.67375 12.3914 9.51112 11.9999 9.50101" fill="#3279F3"/>
</svg>
