<svg width="32" height="32" viewBox="0 0 32 32" fill="none" xmlns="http://www.w3.org/2000/svg">
<path d="M16.0001 29.3334C23.3641 29.3334 29.3334 23.364 29.3334 16C29.3334 8.63602 23.3641 2.66669 16.0001 2.66669C8.63608 2.66669 2.66675 8.63602 2.66675 16C2.66675 23.364 8.63608 29.3334 16.0001 29.3334Z" stroke="black" stroke-width="2.66667" stroke-linejoin="round"/>
<path d="M9.3335 18C10.4381 18 11.3335 17.1046 11.3335 16C11.3335 14.8954 10.4381 14 9.3335 14C8.22893 14 7.3335 14.8954 7.3335 16C7.3335 17.1046 8.22893 18 9.3335 18Z" fill="black"/>
<path d="M16 18C17.1046 18 18 17.1046 18 16C18 14.8954 17.1046 14 16 14C14.8954 14 14 14.8954 14 16C14 17.1046 14.8954 18 16 18Z" fill="black"/>
<path d="M22.6667 18C23.7713 18 24.6667 17.1046 24.6667 16C24.6667 14.8954 23.7713 14 22.6667 14C21.5622 14 20.6667 14.8954 20.6667 16C20.6667 17.1046 21.5622 18 22.6667 18Z" fill="black"/>
</svg>
