<svg width="20" height="20" viewBox="0 0 20 20" fill="none" xmlns="http://www.w3.org/2000/svg">
<path d="M10 1.40625C8.21871 1.40832 6.51097 2.11685 5.25141 3.37641C3.99185 4.63597 3.28332 6.34371 3.28125 8.125C3.28125 9.92188 4.00312 11.9156 5.21172 13.4586C6.17812 14.6922 7.33906 15.5227 8.575 15.8859L7.69453 17.9406C7.66405 18.0119 7.65171 18.0896 7.65861 18.1668C7.66552 18.244 7.69146 18.3182 7.73411 18.383C7.77676 18.4477 7.83479 18.5008 7.90301 18.5376C7.97122 18.5744 8.0475 18.5937 8.125 18.5938H11.875C11.9525 18.5937 12.0288 18.5744 12.097 18.5376C12.1652 18.5008 12.2232 18.4477 12.2659 18.383C12.3085 18.3182 12.3345 18.244 12.3414 18.1668C12.3483 18.0896 12.336 18.0119 12.3055 17.9406L11.425 15.8859C12.6609 15.5227 13.8219 14.6922 14.7844 13.4586C15.9969 11.9156 16.7188 9.92188 16.7188 8.125C16.7167 6.34371 16.0082 4.63597 14.7486 3.37641C13.489 2.11685 11.7813 1.40832 10 1.40625ZM8.76328 15.9375L8.80859 15.9484C8.79303 15.9471 8.77775 15.9434 8.76328 15.9375ZM11.1641 17.6562H8.83594L9.51562 16.0695C9.83773 16.1019 10.1623 16.1019 10.4844 16.0695L11.1641 17.6562ZM10 15.1562C7.38125 15.1562 4.21875 12.0195 4.21875 8.125C4.21875 6.59172 4.82784 5.12123 5.91204 4.03704C6.99623 2.95284 8.46672 2.34375 10 2.34375C11.5333 2.34375 13.0038 2.95284 14.088 4.03704C15.1722 5.12123 15.7812 6.59172 15.7812 8.125C15.7812 12.0195 12.6187 15.1562 10 15.1562ZM13.8281 7.9625C13.8023 7.96645 13.7762 7.96854 13.75 7.96875C13.6393 7.96864 13.5322 7.92936 13.4477 7.85786C13.3632 7.78637 13.3067 7.68727 13.2883 7.57812C13.1674 6.89538 12.8395 6.2663 12.3492 5.77608C11.8588 5.28587 11.2297 4.95821 10.5469 4.8375C10.4242 4.81678 10.3148 4.74818 10.2427 4.64679C10.1706 4.54541 10.1418 4.41954 10.1625 4.29688C10.1832 4.17421 10.2518 4.0648 10.3532 3.99272C10.4546 3.92064 10.5805 3.89178 10.7031 3.9125C11.577 4.06776 12.3822 4.48757 13.0098 5.11518C13.6374 5.7428 14.0572 6.54797 14.2125 7.42188C14.2228 7.48262 14.221 7.54479 14.2073 7.60485C14.1935 7.6649 14.1681 7.72166 14.1324 7.77187C14.0967 7.82208 14.0514 7.86476 13.9992 7.89747C13.947 7.93018 13.8889 7.95228 13.8281 7.9625Z" fill="black"/>
</svg>
