<svg width="32" height="32" viewBox="0 0 32 32" fill="none" xmlns="http://www.w3.org/2000/svg">
<path d="M24.0414 22.156L29.7521 27.8654L27.8654 29.752L22.1561 24.0414C20.0317 25.7443 17.3894 26.6706 14.6667 26.6667C8.04275 26.6667 2.66675 21.2907 2.66675 14.6667C2.66675 8.04269 8.04275 2.66669 14.6667 2.66669C21.2907 2.66669 26.6667 8.04269 26.6667 14.6667C26.6706 17.3894 25.7444 20.0317 24.0414 22.156ZM21.3667 21.1667C23.0585 19.4263 24.0035 17.0938 24.0001 14.6667C24.0001 9.51069 19.8227 5.33335 14.6667 5.33335C9.51075 5.33335 5.33341 9.51069 5.33341 14.6667C5.33341 19.8227 9.51075 24 14.6667 24C17.0939 24.0034 19.4264 23.0585 21.1667 21.3667L21.3667 21.1667Z" fill="black"/>
</svg>
