<svg width="32" height="32" viewBox="0 0 32 32" fill="none" xmlns="http://www.w3.org/2000/svg">
<path d="M28 21.4534V14.7974C28 9.07735 28 6.22002 26.2427 4.44269C24.4853 2.66669 21.656 2.66669 16 2.66669C10.344 2.66669 7.51467 2.66669 5.75733 4.44269C4 6.21869 4 9.08002 4 14.7974V21.4547C4 25.5827 4 27.648 4.97867 28.5494C5.44533 28.98 6.03467 29.2507 6.66267 29.3227C7.97867 29.4734 9.516 28.1134 12.5893 25.3947C13.9493 24.1934 14.628 23.592 15.4133 23.4347C15.8 23.3547 16.2 23.3547 16.5867 23.4347C17.3733 23.592 18.052 24.1934 19.4107 25.3947C22.484 28.1134 24.0213 29.4734 25.3373 29.3214C25.964 29.2507 26.5547 28.98 27.0213 28.5494C28 27.648 28 25.5827 28 21.4534Z" stroke="black" stroke-width="2"/>
<path opacity="0.5" d="M20 8H12" stroke="black" stroke-width="2" stroke-linecap="round"/>
</svg>
